<svg viewBox="0 0 110 110" fill="none" xmlns="http://www.w3.org/2000/svg">
<path d="M101.128 53.4683L62.058 46.9371L55.5307 7.87109C55.4526 7.37109 55.0112 7 54.4995 7C53.9878 7 53.5503 7.37109 53.4683 7.87109L46.9371 46.9411L7.87109 53.4684C7.37109 53.5465 7 53.9879 7 54.4996C7 55.0113 7.37109 55.4488 7.87109 55.5308L46.9411 62.062L53.4723 101.132C53.5504 101.632 53.9918 102.003 54.5035 102.003C55.0152 102.003 55.4527 101.632 55.5347 101.132L62.0659 62.062L101.136 55.5308C101.636 55.4527 102.007 55.0113 102.007 54.4996C102.007 53.9879 101.636 53.5504 101.136 53.4684L101.128 53.4683Z" fill="black"/>
</svg>
